<?xml version="1.0" encoding="UTF-8"?>
<svg width="2000px" height="1000px" viewBox="0 0 2000 1000" version="1.1" xmlns="http://www.w3.org/2000/svg" xmlns:xlink="http://www.w3.org/1999/xlink">
    <!-- Generator: Sketch 60 (88103) - https://sketch.com -->
    <title>logo</title>
    <desc>Created with Sketch.</desc>
    <defs>
        <path d="M76.2686785,271.06768 C87.4238777,271.06768 98.300197,268.04648 108.897636,262.00408 C119.495076,255.961681 127.582595,247.827681 133.160195,237.602082 L133.160195,237.602082 L133.160195,268 L142.084354,268 L142.084354,58.8400143 L133.160195,58.8400143 L133.160195,173.180806 C128.140355,162.955207 120.285235,154.774728 109.594836,148.639368 C98.9044369,142.504009 87.7957177,139.436329 76.2686785,139.436329 C57.8625997,139.436329 42.1988408,145.897048 29.2774017,158.818487 C16.3559626,171.739927 9.89524301,187.217766 9.89524301,205.252004 C9.89524301,223.286243 16.3559626,238.764082 29.2774017,251.685521 C42.1988408,264.60696 57.8625997,271.06768 76.2686785,271.06768 Z M75.8503585,263.25904 C60.1401196,263.25904 46.7074005,257.542001 35.5522013,246.107921 C24.397002,234.673842 18.8194024,221.148163 18.8194024,205.530884 C18.8194024,189.727685 24.443482,176.062566 35.6916412,164.535527 C46.9398005,153.008488 60.3725196,147.244968 75.9897985,147.244968 C91.6070774,147.244968 105.132757,153.054968 116.566836,164.674967 C128.000915,176.294966 133.717955,189.913605 133.717955,205.530884 C133.717955,221.148163 128.000915,234.673842 116.566836,246.107921 C105.132757,257.542001 91.5605974,263.25904 75.8503585,263.25904 Z M262.297946,271.34656 C281.075865,271.34656 297.064984,264.09568 310.265303,249.593921 L310.265303,249.593921 L310.265303,235.371042 C304.501783,243.923362 297.204424,250.755921 288.373224,255.868721 C279.542025,260.98152 269.548826,263.53792 258.393626,263.53792 C247.238427,263.53792 235.618428,258.704001 223.533629,249.036161 L223.533629,249.036161 L311.101943,162.583367 C297.343864,147.337928 280.889945,139.715209 261.740186,139.715209 C242.590427,139.715209 226.508348,146.175928 213.493949,159.097367 C200.47955,172.018807 193.972351,187.310726 193.972351,204.973124 C193.972351,222.635523 200.52603,238.113362 213.633389,251.406641 C226.740748,264.69992 242.125627,271.34656 259.788026,271.34656 L259.788026,271.34656 L262.297946,271.34656 Z M217.677149,243.179682 C207.82339,232.024482 202.89651,219.010083 202.89651,204.136484 C202.89651,189.262885 208.61355,176.109046 220.047629,164.674967 C231.481708,153.240888 244.542587,147.523848 259.230266,147.523848 C274.103865,147.523848 287.304184,152.543688 298.831224,162.583367 L298.831224,162.583367 L217.677149,243.179682 Z M370.519699,268 L370.519699,184.336006 C370.519699,174.482246 374.238099,165.836967 381.674898,158.400167 C389.111698,150.963368 397.849937,147.244968 407.889616,147.244968 C417.929296,147.244968 426.481615,150.916888 433.546575,158.260727 C440.611534,165.604567 444.144014,174.296326 444.144014,184.336006 L444.144014,184.336006 L444.144014,268 L453.068173,268 L453.068173,184.336006 C453.068173,174.482246 456.926013,165.836967 464.641692,158.400167 C472.357372,150.963368 481.188571,147.244968 491.135291,147.244968 C501.08201,147.244968 509.587849,150.823928 516.652809,157.981848 C523.717768,165.139767 527.250248,174.110406 527.250248,184.893766 L527.250248,184.893766 L527.250248,268 L536.174408,268 L536.174408,184.893766 C536.174408,170.949767 531.898248,159.887527 523.345928,151.707048 C514.793609,143.526568 504.84689,139.436329 493.50577,139.436329 C482.164651,139.436329 472.543292,142.132169 464.641692,147.523848 C456.740093,152.915528 451.394893,160.073447 448.606093,168.997607 C445.259534,160.259367 439.960814,153.147928 432.709935,147.663288 C425.459055,142.178649 417.882816,139.436329 409.981216,139.436329 C402.079617,139.436329 394.456897,141.481449 387.113058,145.571688 C379.769218,149.661928 374.238099,154.495848 370.519699,160.073447 L370.519699,160.073447 L370.519699,142.504009 L361.595539,142.504009 L361.595539,268 L370.519699,268 Z M654.43584,271.06768 C672.470078,271.06768 687.808477,264.46752 700.451037,251.267201 C713.093596,238.066882 719.414875,222.589043 719.414875,204.833684 C719.414875,187.078326 712.954156,171.739927 700.032717,158.818487 C687.111277,145.897048 671.493998,139.436329 653.18088,139.436329 C634.867761,139.436329 619.204002,145.897048 606.189603,158.818487 C593.175204,171.739927 586.668004,187.031846 586.668004,204.694244 C586.668004,222.356643 593.082244,237.834482 605.910723,251.127761 C618.739202,264.42104 634.077601,271.06768 651.92592,271.06768 L651.92592,271.06768 L654.43584,271.06768 Z M653.45976,263.25904 C637.749521,263.25904 624.177362,257.542001 612.743283,246.107921 C601.309203,234.673842 595.592164,221.148163 595.592164,205.530884 C595.592164,189.913605 601.309203,176.294966 612.743283,164.674967 C624.177362,153.054968 637.703041,147.244968 653.32032,147.244968 C668.937599,147.244968 682.370318,153.008488 693.618477,164.535527 C704.866636,176.062566 710.490716,189.727685 710.490716,205.530884 C710.490716,221.148163 704.913116,234.673842 693.757917,246.107921 C682.602718,257.542001 669.169999,263.25904 653.45976,263.25904 Z M830.704308,271.62544 C849.854067,271.62544 865.936145,264.46752 878.950545,250.151681 L878.950545,250.151681 L878.950545,235.649922 C873.187025,244.388162 865.889665,251.267201 857.058466,256.287041 C848.227267,261.30688 838.977747,263.8168 829.309908,263.8168 C813.878549,263.8168 800.44583,258.099761 789.011751,246.665681 C777.577671,235.231602 771.860632,221.612963 771.860632,205.809764 C771.860632,190.006565 777.577671,176.387926 789.011751,164.953847 C800.44583,153.519768 813.878549,147.802728 829.309908,147.802728 C838.977747,147.802728 848.227267,150.312648 857.058466,155.332488 C865.889665,160.352327 873.187025,167.138407 878.950545,175.690726 L878.950545,175.690726 L878.950545,161.467847 C865.564305,147.152008 849.389267,139.994089 830.425428,139.994089 C811.461589,139.994089 795.47247,146.454808 782.458071,159.376247 C769.443672,172.297687 762.936472,187.636085 762.936472,205.391444 C762.936472,223.146803 769.350712,238.624642 782.179191,251.824961 C795.00767,265.02528 810.346069,271.62544 828.194388,271.62544 L828.194388,271.62544 L830.704308,271.62544 Z M935.579501,268 L935.579501,184.336006 C935.579501,174.482246 939.344381,165.836967 946.87414,158.400167 C954.4039,150.963368 963.095659,147.244968 972.949418,147.244968 C982.803178,147.244968 991.820297,151.335208 1000.00078,159.515687 L1000.00078,159.515687 L1000.00078,148.360488 C992.006217,142.411049 983.639818,139.436329 974.901578,139.436329 C966.163339,139.436329 958.261739,141.481449 951.19678,145.571688 C944.13182,149.661928 938.926061,154.867688 935.579501,161.188967 L935.579501,161.188967 L935.579501,142.504009 L926.655342,142.504009 L926.655342,268 L935.579501,268 Z M1107.10701,271.06768 C1119.00589,271.06768 1130.16109,268 1140.57261,261.86464 C1150.98413,255.729281 1158.79277,247.362881 1163.99853,236.765442 L1163.99853,236.765442 L1163.99853,268 L1172.92268,268 L1172.92268,142.504009 L1163.99853,142.504009 L1163.99853,174.017446 C1159.72237,163.605927 1152.14613,155.239528 1141.26981,148.918248 C1130.39349,142.596969 1119.00589,139.436329 1107.10701,139.436329 C1088.88685,139.436329 1073.26957,145.897048 1060.25517,158.818487 C1047.24077,171.739927 1040.73357,187.217766 1040.73357,205.252004 C1040.73357,223.286243 1047.24077,238.764082 1060.25517,251.685521 C1073.26957,264.60696 1088.88685,271.06768 1107.10701,271.06768 Z M1107.52533,263.25904 C1091.81509,263.25904 1078.24293,257.542001 1066.80885,246.107921 C1055.37477,234.673842 1049.65773,221.148163 1049.65773,205.530884 C1049.65773,189.913605 1055.37477,176.294966 1066.80885,164.674967 C1078.24293,153.054968 1091.76861,147.244968 1107.38589,147.244968 C1123.00317,147.244968 1136.43589,153.008488 1147.68405,164.535527 C1158.93221,176.062566 1164.55629,189.681205 1164.55629,205.391444 C1164.55629,221.101683 1158.97869,234.673842 1147.82349,246.107921 C1136.66829,257.542001 1123.23557,263.25904 1107.52533,263.25904 Z M1275.28796,269.67328 L1275.28796,261.86464 C1264.5046,261.86464 1255.34804,258.146241 1247.81828,250.709441 C1240.28852,243.272642 1236.52364,233.883682 1236.52364,222.542563 L1236.52364,222.542563 L1236.52364,150.591528 L1275.00908,150.591528 L1275.00908,142.782889 L1236.52364,142.782889 L1236.52364,92.026732 L1227.59948,92.026732 L1227.59948,222.542563 C1227.59948,236.300642 1232.24748,247.595281 1241.54348,256.426481 C1250.83948,265.25768 1262.08764,269.67328 1275.28796,269.67328 L1275.28796,269.67328 Z" id="path-1"></path>
        <filter x="-0.3%" y="-1.6%" width="100.6%" height="106.6%" filterUnits="objectBoundingBox" id="filter-2">
            <feOffset dx="0" dy="7" in="SourceAlpha" result="shadowOffsetOuter1"></feOffset>
            <feColorMatrix values="0 0 0 0 0.758463542   0 0 0 0 0.758463542   0 0 0 0 0.758463542  0 0 0 1 0" type="matrix" in="shadowOffsetOuter1"></feColorMatrix>
        </filter>
        <path d="M22.7999986,0 C7.59999955,34.3999979 0,72.7999957 0,115.199993 C0,157.599991 7.59999955,195.999988 22.7999986,230.399986 L310.799981,144 L598.799964,230.399986 C613.999963,195.999988 621.599963,157.599991 621.599963,115.199993 C621.599963,72.7999957 613.999963,34.3999979 598.799964,0 L310.799981,86.3999949 L22.7999986,0 Z" id="path-3"></path>
        <filter x="-1.1%" y="-3.4%" width="102.3%" height="109.9%" filterUnits="objectBoundingBox" id="filter-5">
            <feMorphology radius="3.59999979" operator="dilate" in="SourceAlpha" result="shadowSpreadOuter1"></feMorphology>
            <feOffset dx="0" dy="7" in="shadowSpreadOuter1" result="shadowOffsetOuter1"></feOffset>
            <feComposite in="shadowOffsetOuter1" in2="SourceAlpha" operator="out" result="shadowOffsetOuter1"></feComposite>
            <feColorMatrix values="0 0 0 0 0.756862745   0 0 0 0 0.756862745   0 0 0 0 0.756862745  0 0 0 1 0" type="matrix" in="shadowOffsetOuter1"></feColorMatrix>
        </filter>
    </defs>
    <g id="logo" stroke="none" stroke-width="1" fill="none" fill-rule="evenodd">
        <g id="Group" transform="translate(347.299961, 139.000000)">
            <g id="democrat" fill-rule="nonzero">
                <use fill="black" fill-opacity="1" filter="url(#filter-2)" xlink:href="#path-1"></use>
                <use fill="#000000" xlink:href="#path-1"></use>
            </g>
            <g id="Group-5" transform="translate(341.700019, 431.999974)">
                <mask id="mask-4" fill="white">
                    <use xlink:href="#path-3"></use>
                </mask>
                <g id="Path-2">
                    <use fill="black" fill-opacity="1" filter="url(#filter-5)" xlink:href="#path-3"></use>
                    <use stroke="#000000" stroke-width="7.19999957" fill="#FFFFFF" fill-rule="evenodd" xlink:href="#path-3"></use>
                </g>
                <circle id="Oval" stroke="#000000" stroke-width="7.19999957" fill="#000000" mask="url(#mask-4)" cx="310.799981" cy="115.199993" r="63.5999962"></circle>
            </g>
        </g>
    </g>
</svg>